<svg width="512" height="512" xmlns="http://www.w3.org/2000/svg" ><g><rect fill="none" id="canvas_background" height="602" width="802" y="-1" x="-1" /></g><g><path id="svg_1" d="m452,43c-63.66667,0 -135.33333,-5 -199,-5c-64,0 -128,0 -192,0c-31.3,2 -61,32.7 -61,68l0,246c0,35.3 28.7,64 64,64l96,0l0,84c0,9.8 11.2,15.5 19.1,9.7l124.9,-93.7l144,0c35.3,0 64,-28.7 64,-64c-0.16667,-48.33333 1.66667,-40.66667 1.5,-89c-0.16667,-48.33333 -1.33333,-107.66667 -1.5,-156c1,-9.3 -4.7,-59 -60,-64z" fill="rgba(2, 2, 2, 0.47)" /></g></svg>