<svg width="512" height="512" xmlns="http://www.w3.org/2000/svg"><g><rect fill="none" id="canvas_background" height="602" width="802" y="-1" x="-1"/></g> <g><path id="svg_1" d="m104,224c-27,0 -54,0 -81,0c-1,267.255 -4.255,256 -3,270c103.255,2 108,7.255 108,-6l0,-240c0,-13.255 -10.745,-24 -24,-24zm280,-142.548c0,42.416 -25.97,66.208 -33.277,94.548l101.723,0c33.397,0 59.397,27.746 59.553,58.098c0.084,17.938 -7.546,37.249 -19.439,49.197l-0.11,0.11c9.836,23.337 8.237,56.037 -9.308,79.469c8.681,25.895 -0.069,57.704 -16.382,74.757c4.298,17.598 2.244,32.575 -6.148,44.632c-20.41,29.324 -70.996,29.737 -113.773,29.737l-2.845,-0.001c-48.287,-0.017 -87.806,-17.598 -119.56,-31.725c-15.957,-7.099 -36.821,-15.887 -52.651,-16.178c-6.54,-0.12 -11.783,-5.457 -11.783,-11.998l0,-213.77c0,-3.2 1.282,-6.271 3.558,-8.521c39.614,-39.144 56.648,-80.587 89.117,-113.111c14.804,-14.832 20.188,-37.236 25.393,-58.902c4.447,-18.501 13.749,-57.794 33.932,-57.794c24,0 72,8 72,81.452z" fill="#0382c7"/></g></svg>