<?xml version="1.0" standalone="no"?>
<!DOCTYPE svg PUBLIC "-//W3C//DTD SVG 20010904//EN"
 "http://www.w3.org/TR/2001/REC-SVG-20010904/DTD/svg10.dtd">
<svg version="1.0" xmlns="http://www.w3.org/2000/svg"
 width="1024.000000pt" height="1024.000000pt" viewBox="0 0 1024.000000 1024.000000"
 preserveAspectRatio="xMidYMid meet">

<g transform="translate(0.000000,1024.000000) scale(0.100000,-0.100000)"
fill="#aadbff" stroke="none">
<path d="M5615 9334 c-16 -2 -79 -9 -140 -15 -381 -38 -821 -150 -1255 -322
-226 -89 -652 -299 -855 -421 -994 -599 -1764 -1409 -2215 -2331 -175 -357
-299 -724 -347 -1026 -24 -156 -24 -787 0 -911 31 -154 112 -363 205 -530 144
-259 384 -480 663 -612 330 -157 803 -247 1179 -225 277 16 643 68 703 101 22
11 22 12 -8 19 -16 4 -156 12 -310 18 -487 18 -782 81 -1085 230 -363 179
-645 491 -759 842 -117 360 -82 800 105 1309 46 125 194 425 282 572 325 543
756 1051 1227 1449 756 637 1710 1063 2569 1148 158 16 508 14 658 -4 517 -60
935 -284 1176 -628 106 -152 172 -309 232 -552 73 -300 63 -478 -56 -960 -73
-298 -183 -564 -359 -871 -186 -323 -339 -516 -700 -882 -210 -214 -261 -260
-276 -245 -11 11 8 123 47 277 128 508 304 1572 344 2076 17 207 10 445 -13
488 -82 151 -268 226 -434 174 -79 -25 -134 -61 -227 -151 -135 -130 -262
-297 -611 -796 -281 -402 -594 -819 -844 -1125 -358 -437 -843 -874 -953 -858
-21 3 -23 8 -22 58 3 167 211 735 594 1620 164 379 224 528 255 637 66 228 26
459 -104 596 -93 98 -205 141 -366 141 -116 0 -203 -23 -325 -84 -276 -139
-557 -473 -741 -882 -127 -281 -242 -717 -183 -694 9 3 17 6 19 6 1 0 47 55
101 123 119 148 397 433 554 569 119 102 276 216 285 206 7 -7 -44 -136 -168
-423 -52 -121 -132 -305 -177 -410 -188 -436 -308 -764 -364 -995 -50 -209
-60 -286 -60 -475 -1 -194 12 -269 69 -389 140 -295 531 -404 956 -266 184 60
406 187 596 341 309 250 739 748 1078 1249 149 219 215 310 227 310 55 0 -221
-1264 -409 -1873 -28 -92 -42 -122 -62 -136 -14 -11 -224 -138 -466 -283
-1461 -878 -1739 -1108 -1889 -1558 -81 -245 -72 -451 29 -665 89 -189 232
-330 429 -421 162 -74 265 -87 483 -59 169 23 263 49 391 110 212 102 359 211
554 414 134 139 238 275 401 522 68 103 134 192 160 215 25 21 96 65 158 98
144 74 188 101 398 239 94 61 244 159 333 217 530 343 1128 858 1499 1293 285
334 557 743 750 1129 242 484 396 995 439 1463 13 143 13 504 0 636 -53 535
-236 978 -569 1377 -104 125 -275 302 -292 302 -16 0 7 -35 61 -95 124 -137
301 -448 393 -690 111 -293 157 -579 157 -980 0 -324 -34 -562 -123 -875 -250
-869 -753 -1665 -1492 -2362 -396 -373 -835 -684 -1247 -883 -89 -43 -114 -51
-116 -40 -2 9 12 53 31 98 19 45 51 132 71 193 46 140 67 164 233 279 502 346
903 707 1257 1130 522 626 871 1340 980 2005 54 330 48 736 -14 1025 -85 389
-266 721 -550 1005 -387 387 -904 619 -1528 685 -122 13 -529 19 -617 9z
m-695 -6618 c0 -8 -31 -74 -69 -148 -292 -569 -582 -916 -928 -1114 -102 -59
-187 -84 -277 -84 -129 1 -196 54 -196 156 0 131 170 349 440 566 206 165 956
638 1012 638 10 0 18 -6 18 -14z"/>
</g>
</svg>
