<!DOCTYPE svg PUBLIC "-//W3C//DTD SVG 20010904//EN" "http://www.w3.org/TR/2001/REC-SVG-20010904/DTD/svg10.dtd">
<svg version="1.0" xmlns="http://www.w3.org/2000/svg" width="1200px" height="1200px" viewBox="0 0 12000 12000" preserveAspectRatio="xMidYMid meet">
<g id="layer101" fill="#138aca" stroke="none">
 <path d="M5500 11540 c-58 -5 -136 -15 -175 -24 -38 -9 -88 -16 -110 -16 -22 0 -83 -9 -135 -21 -52 -11 -131 -26 -175 -33 -76 -12 -163 -31 -285 -61 -118 -29 -435 -127 -472 -146 -71 -36 -69 -16 -78 -734 -5 -352 -12 -1381 -16 -2286 -6 -1438 -5 -1650 8 -1675 23 -44 307 -534 493 -849 49 -82 103 -175 120 -205 18 -30 77 -131 132 -225 55 -93 110 -190 123 -215 25 -51 176 -308 225 -386 18 -27 43 -70 55 -95 29 -58 104 -191 205 -364 81 -138 325 -564 485 -845 45 -80 95 -165 110 -190 15 -25 71 -121 125 -215 54 -93 136 -235 183 -315 92 -158 105 -180 272 -475 63 -110 132 -231 155 -270 65 -111 114 -196 232 -405 61 -107 158 -278 215 -380 58 -102 117 -208 131 -236 17 -33 40 -60 63 -74 l36 -23 64 27 c35 14 72 26 81 26 56 0 726 290 894 387 35 20 98 55 139 78 78 43 127 73 295 184 504 331 1078 880 1407 1343 257 363 354 524 524 873 114 236 211 477 304 760 83 255 90 278 90 307 0 15 11 60 24 100 14 40 27 101 31 136 3 35 15 103 25 151 64 292 106 958 81 1296 -20 278 -83 719 -137 965 -45 200 -226 731 -325 951 -28 63 -60 137 -71 164 -11 28 -23 55 -28 60 -4 6 -42 73 -85 150 -176 318 -330 543 -586 855 -117 143 -434 467 -595 609 -473 416 -1068 778 -1614 981 -291 109 -718 233 -910 265 -52 9 -108 20 -124 26 -17 5 -90 16 -164 25 -73 8 -164 22 -200 30 -53 12 -160 16 -502 19 -239 2 -482 0 -540 -5z m1363 -3540 c6 -22 5 -334 -2 -840 -14 -997 -14 -1473 0 -1522 15 -55 41 -51 83 15 18 28 97 171 176 317 79 146 146 270 150 275 5 6 52 93 105 195 54 102 105 196 115 210 9 14 79 142 155 285 76 143 149 277 162 299 14 21 40 69 59 107 26 52 41 71 62 76 15 5 113 8 217 8 l190 0 72 -135 c40 -74 244 -475 453 -891 209 -416 391 -768 404 -782 14 -15 31 -27 39 -27 35 0 41 48 48 390 4 184 12 497 18 695 6 198 15 580 21 850 6 269 14 493 19 498 11 11 737 5 748 -6 12 -13 8 -1197 -6 -1657 -7 -223 -16 -822 -20 -1333 -5 -510 -11 -931 -15 -935 -10 -9 -706 -16 -763 -7 l-42 6 -69 132 c-38 73 -267 526 -508 1007 -240 481 -460 915 -487 964 -56 100 -101 156 -126 156 -31 0 -68 -52 -141 -200 -100 -200 -362 -707 -420 -810 -26 -47 -107 -200 -180 -340 -161 -310 -308 -589 -406 -771 l-74 -136 -333 -6 c-182 -3 -375 -3 -427 1 l-95 7 1 135 c17 2595 28 3777 35 3784 4 4 139 11 301 13 161 3 295 7 298 9 2 3 42 3 89 2 l85 -3 9 -35z"/>
 <path d="M3020 10704 c-589 -402 -1026 -811 -1466 -1369 -114 -144 -275 -400 -442 -700 -214 -386 -432 -959 -506 -1335 -14 -69 -32 -145 -40 -169 -9 -24 -16 -64 -16 -88 0 -24 -11 -92 -24 -151 -14 -59 -29 -163 -35 -232 -6 -69 -15 -165 -21 -215 -12 -112 -12 -687 0 -815 4 -52 13 -149 19 -215 6 -66 20 -165 30 -220 11 -55 25 -131 31 -170 25 -151 122 -529 180 -700 86 -254 102 -296 158 -425 414 -949 965 -1649 1801 -2289 86 -66 391 -270 466 -313 17 -9 68 -38 115 -64 142 -80 431 -222 505 -248 39 -13 135 -50 215 -81 134 -52 423 -146 600 -194 78 -21 419 -79 624 -106 148 -19 341 -32 606 -40 352 -11 724 30 745 83 7 20 -39 113 -139 282 -41 69 -102 172 -134 230 -33 58 -85 148 -116 200 -31 52 -99 174 -152 270 -54 96 -140 249 -192 340 -52 91 -122 215 -157 275 -34 61 -108 191 -165 290 -56 99 -125 221 -152 270 -28 50 -74 131 -103 180 -29 50 -98 173 -155 275 -56 102 -135 241 -175 310 -40 69 -110 193 -157 275 -107 189 -153 268 -243 425 -40 69 -100 177 -135 240 -35 63 -136 241 -226 395 -89 154 -189 330 -222 390 -146 269 -229 399 -265 420 l-36 20 -28 -21 c-15 -11 -52 -65 -81 -120 -29 -54 -88 -160 -130 -234 -42 -74 -80 -143 -84 -153 -4 -10 -21 -37 -36 -60 -16 -23 -54 -85 -84 -137 -30 -52 -111 -192 -180 -310 -69 -118 -175 -300 -235 -405 l-110 -190 -144 -6 c-321 -14 -799 -4 -806 16 -4 12 47 97 234 392 212 335 298 474 334 538 18 33 70 116 115 185 44 69 105 166 135 216 147 250 465 770 570 933 41 63 80 130 87 150 24 68 31 272 36 1111 3 465 11 1332 17 1927 6 595 8 1107 5 1137 -8 59 -37 106 -64 106 -9 -1 -87 -48 -172 -106z"/>
 </g>

</svg>