<svg width="64" height="64" xmlns="http://www.w3.org/2000/svg" preserveAspectRatio="xMidYMid meet">
 <metadata>Created by potrace 1.16, written by Peter Selinger 2001-2019</metadata>

 <g>
  <title>Layer 1</title>
  <g stroke="null" id="svg_1" fill="white" transform="translate(0,64) scale(0.10000000149011612,-0.10000000149011612) ">
   <path stroke="null" id="svg_2" d="m60.00598,604.86215c3.01044,-8.84957 20.0696,-67.47796 37.12876,-131.63734c18.06264,-64.15938 36.12528,-119.46918 40.1392,-125.00016c4.01392,-4.42478 117.40716,-6.63718 252.87695,-5.53098l244.84911,3.31859l-275.95699,131.63734c-151.52547,71.90275 -281.97787,133.84973 -290.00571,137.16832c-10.0348,4.42478 -13.04524,1.1062 -9.03132,-9.95577z"/>
   <path stroke="null" id="svg_3" d="m135.26698,288.49006c-8.02784,-15.48675 -76.26448,-262.16848 -73.25404,-265.48707c3.01044,-3.31859 558.93834,259.95609 566.96618,268.80566c2.00696,2.21239 -106.36888,4.42478 -242.84215,4.42478c-135.46979,0 -248.86303,-3.31859 -250.86999,-7.74337z"/>
  </g>
 </g>
</svg>